<?xml version="1.0" standalone="no"?>
<!DOCTYPE svg PUBLIC "-//W3C//DTD SVG 20010904//EN"
 "http://www.w3.org/TR/2001/REC-SVG-20010904/DTD/svg10.dtd">
<svg           
          version="1.0"
          xmlns="http://www.w3.org/2000/svg"
          width="1306.000000pt"
          viewBox="0 0 1306.000000 750.000000"
          preserveAspectRatio="xMidYMid meet">

<g transform="translate(0.000000,750.000000) scale(0.100000,-0.100000)"
fill="#000000" stroke="none">
<path d="M662 7459 c-237 -28 -369 -114 -459 -300 -72 -147 -96 -260 -123
-564 -28 -310 -36 -5237 -10 -5600 43 -596 163 -828 467 -905 113 -29 347 -44
496 -31 219 19 345 69 457 181 137 136 196 315 221 672 12 167 9 575 -4 596
-6 9 -75 12 -286 12 l-279 0 -5 -287 c-9 -474 -33 -534 -220 -542 -217 -8
-247 54 -268 559 -14 345 -4 5077 12 5270 16 206 45 297 104 336 29 19 151 31
209 20 47 -9 95 -50 117 -101 30 -68 49 -256 49 -491 l0 -214 286 0 286 0 -5
328 c-4 273 -8 347 -26 449 -85 492 -257 626 -796 622 -82 -1 -183 -5 -223
-10z"/>
<path d="M1985 7397 c-3 -7 -4 -143 -3 -302 l3 -290 2184 -3 2184 -2 -4 -2918
-4 -2917 295 0 295 0 3 2916 2 2916 1298 6 c713 4 1849 7 2525 7 l1227 0 0
-3375 0 -3375 23 -5 c12 -3 146 -4 297 -3 l275 3 5 3375 5 3375 233 3 232 2 0
300 0 300 -5535 0 c-4448 0 -5537 -2 -5540 -13z"/>
<path d="M8352 6530 c-188 -16 -321 -62 -406 -140 -115 -106 -192 -304 -232
-595 -21 -157 -32 -1397 -33 -3916 -1 -1648 0 -1817 15 -1823 20 -8 548 -8
568 0 15 6 16 178 16 1855 l0 1849 250 0 250 0 0 -1849 c0 -1677 1 -1849 16
-1855 9 -3 141 -6 295 -6 221 0 281 3 285 13 10 27 -15 5530 -26 5637 -45 443
-143 662 -340 758 -135 66 -388 94 -658 72z m312 -613 c97 -64 116 -239 116
-1058 0 -278 -2 -508 -4 -510 -2 -2 -115 -3 -250 -1 l-246 3 0 527 c0 856 22
1013 146 1052 49 16 207 7 238 -13z"/>
<path d="M10322 6530 c-284 -25 -425 -107 -520 -301 -80 -165 -108 -315 -133
-724 -17 -283 -19 -4328 -1 -4520 39 -439 92 -620 222 -758 100 -107 221 -150
470 -168 256 -18 468 12 605 84 74 40 171 134 213 207 42 76 88 217 106 328
24 145 39 459 33 650 -4 95 -9 177 -12 183 -4 5 -121 9 -284 9 l-278 0 -6
-277 c-9 -496 -41 -562 -265 -551 -62 3 -98 9 -116 21 -63 42 -91 159 -107
453 -14 280 -6 4303 9 4449 21 193 53 279 114 311 50 27 201 26 248 -2 85 -49
109 -156 117 -526 l6 -268 277 0 c244 0 279 2 284 16 10 25 7 459 -4 584 -41
468 -163 691 -417 765 -118 34 -387 51 -561 35z"/>
<path d="M2566 6519 c-167 -23 -271 -67 -353 -149 -137 -139 -209 -399 -233
-845 -13 -252 -13 -4192 0 -4450 12 -224 24 -336 52 -465 24 -112 77 -256 120
-323 40 -62 116 -130 182 -161 212 -101 774 -95 967 10 103 57 195 184 247
344 65 198 82 398 92 1065 12 719 4 3791 -10 4005 -14 225 -37 398 -66 499
-85 293 -194 406 -439 458 -85 17 -460 26 -559 12z m354 -595 c70 -28 100 -96
121 -279 16 -135 24 -4078 10 -4449 -18 -445 -47 -506 -241 -506 -175 0 -214
61 -240 365 -14 168 -14 4348 0 4521 19 225 48 310 120 346 46 24 174 24 230
2z"/>
<path d="M5070 5286 c0 -1184 -2 -1277 -26 -1253 -2 2 -97 294 -210 648 -113
354 -225 705 -249 779 l-43 135 -311 3 -311 2 0 -2769 c0 -2516 1 -2769 16
-2775 9 -3 130 -6 270 -6 l254 0 0 2070 c0 1753 2 2070 14 2070 14 0 45 -85
579 -1565 l252 -700 153 -3 152 -3 0 2306 0 2305 -270 0 -270 0 0 -1244z"/>
<path d="M4770 356 c0 -259 2 -295 16 -300 24 -9 2647 -7 2662 2 9 7 12 73 10
298 l-3 289 -1342 3 -1343 2 0 -294z"/>
</g>
</svg>
