<?xml version="1.0" standalone="no"?>
<!DOCTYPE svg PUBLIC "-//W3C//DTD SVG 20010904//EN"
 "http://www.w3.org/TR/2001/REC-SVG-20010904/DTD/svg10.dtd">
<svg version="1.0" xmlns="http://www.w3.org/2000/svg"
 width="1525.000000pt" height="750.000000pt" viewBox="0 0 1525.000000 750.000000"
 preserveAspectRatio="xMidYMid meet">

<g transform="translate(0.000000,750.000000) scale(0.100000,-0.100000)"
fill="#000000" stroke="none">
<path d="M673 7380 c-173 -22 -269 -59 -351 -133 -87 -81 -164 -231 -197 -386
-56 -268 -64 -666 -64 -3406 -1 -2132 3 -2382 35 -2635 42 -331 142 -533 303
-614 128 -65 394 -99 619 -78 410 37 588 224 649 681 17 132 26 697 11 734 -7
16 -30 17 -280 17 l-273 0 -3 -242 c-3 -362 -30 -500 -104 -546 -70 -43 -235
-37 -286 11 -59 55 -80 179 -91 532 -12 373 -3 4887 10 5094 14 243 40 335
106 378 22 14 48 18 128 18 88 0 104 -3 132 -23 76 -54 103 -193 103 -540 l0
-232 278 2 277 3 -1 305 c0 233 -4 333 -18 423 -57 393 -188 568 -466 622
-100 20 -409 28 -517 15z"/>
<path d="M2543 7379 c-296 -34 -416 -129 -513 -404 -38 -110 -64 -259 -82
-470 -19 -230 -19 -5279 0 -5495 20 -225 40 -346 78 -459 99 -299 215 -387
554 -422 233 -23 518 8 646 71 183 90 286 320 324 730 36 382 36 5270 0 5650
-37 396 -137 630 -307 722 -134 73 -442 107 -700 77z m309 -581 c76 -23 108
-90 129 -273 16 -132 25 -4924 10 -5290 -17 -433 -44 -488 -236 -489 -141 -1
-174 25 -206 161 -39 162 -40 307 -36 2988 3 2355 5 2598 20 2683 26 144 58
202 123 222 43 12 151 12 196 -2z"/>
<path d="M3702 7038 l3 -293 863 -3 862 -2 0 295 0 295 -865 0 -865 0 2 -292z"/>
<path d="M5670 3725 l0 -3605 1630 0 1630 0 0 310 0 310 -1337 2 -1338 3 -3
2267 -2 2268 377 2 378 3 3 260 c1 143 0 270 -3 283 l-5 22 -375 0 -375 0 2
443 3 442 383 3 382 2 0 295 0 295 -675 0 -675 0 0 -3605z"/>
<path d="M7310 4256 l0 -3076 290 0 290 0 2 2008 3 2007 65 3 c143 7 202 -23
234 -120 23 -71 52 -274 71 -493 8 -99 20 -232 26 -295 9 -102 27 -1860 29
-2777 l0 -333 306 0 306 0 -7 1407 c-7 1447 -9 1540 -45 1923 -50 542 -105
775 -203 870 -20 19 -37 42 -37 51 0 10 27 32 65 55 135 79 183 222 206 614
20 338 -5 685 -62 853 -67 203 -162 293 -364 349 -77 21 -101 22 -627 26
l-548 3 0 -3075z m910 2476 c19 -9 44 -34 56 -56 41 -72 49 -144 49 -416 0
-275 -9 -358 -50 -447 -37 -81 -53 -87 -232 -92 l-153 -3 0 516 0 516 148 0
c120 0 153 -3 182 -18z"/>
<path d="M10615 7320 c-105 -11 -208 -35 -270 -64 -201 -92 -312 -360 -345
-831 -7 -99 -11 -1203 -13 -3225 l-2 -3075 285 0 285 0 3 2253 2 2252 245 0
245 0 2 -2252 3 -2253 288 -3 287 -2 -1 1987 c-1 2797 -12 4298 -33 4473 -21
182 -39 262 -81 372 -108 278 -255 362 -655 372 -91 3 -201 1 -245 -4z m286
-581 c49 -17 76 -45 98 -104 36 -97 43 -218 48 -837 l5 -598 -247 0 -248 0 6
593 c3 327 11 630 17 677 22 174 53 239 125 265 49 17 150 19 196 4z"/>
<path d="M11885 7317 c-3 -7 -4 -138 -3 -292 l3 -280 1110 -5 1110 -5 5 -3305
5 -3305 288 -3 287 -2 0 3294 c0 1812 3 3301 6 3310 5 14 37 16 250 16 l244 0
0 295 0 295 -1650 0 c-1321 0 -1652 -3 -1655 -13z"/>
<path d="M3700 6303 c0 -5 20 -309 45 -678 25 -368 68 -1014 95 -1435 27 -421
66 -999 85 -1285 19 -286 50 -756 70 -1045 19 -289 51 -775 70 -1080 19 -305
38 -579 41 -608 l5 -52 455 0 c355 0 455 3 459 13 2 6 15 192 29 412 45 689
174 2653 216 3275 79 1182 160 2426 160 2458 l0 32 -304 0 -304 0 -6 -72 c-3
-40 -10 -183 -16 -318 -22 -528 -131 -3021 -180 -4100 -17 -366 -30 -668 -30
-672 0 -13 -40 -9 -45 5 -2 6 -11 190 -19 407 -26 633 -158 3773 -184 4360
l-17 385 -312 3 c-172 1 -313 -1 -313 -5z"/>
<path d="M11885 6278 c-3 -7 -4 -1394 -3 -3083 l3 -3070 287 -3 288 -2 2 2017
3 2018 82 3 c46 2 101 -2 123 -8 92 -25 125 -133 164 -540 46 -482 47 -518 54
-2030 l7 -1455 304 -3 304 -2 -6 1487 -6 1488 -25 265 c-45 471 -69 636 -112
780 -33 107 -55 151 -105 205 -21 23 -39 45 -39 49 0 3 32 26 70 51 112 72
152 152 187 377 26 166 26 743 0 908 -52 326 -171 477 -423 537 -95 22 -1151
33 -1159 11z m940 -610 c19 -20 41 -59 49 -89 26 -86 39 -269 31 -444 -11
-261 -41 -381 -108 -429 -26 -19 -43 -21 -180 -21 l-152 0 -3 500 c-1 275 0
506 3 513 4 11 38 13 166 10 l161 -3 33 -37z"/>
</g>
</svg>
