<?xml version="1.0" standalone="no"?>
<!DOCTYPE svg PUBLIC "-//W3C//DTD SVG 20010904//EN"
 "http://www.w3.org/TR/2001/REC-SVG-20010904/DTD/svg10.dtd">
<svg      class="logo"
          version="1.0"
          xmlns="http://www.w3.org/2000/svg"
          viewBox="0 0 1028.000000 822.000000"
          preserveAspectRatio="xMidYMid meet">
<metadata>
Created by potrace 1.16, written by Peter Selinger 2001-2019
</metadata>
<g transform="translate(0.000000,822.000000) scale(0.100000,-0.100000)"
fill="#000000" stroke="none">
<path d="M8238 7480 c-208 -51 -317 -171 -370 -404 -17 -77 -21 -136 -25 -386
-7 -435 13 -597 89 -711 64 -95 168 -173 393 -294 260 -140 370 -231 394 -323
6 -22 11 -771 13 -1847 3 -1925 4 -1884 -43 -1961 -26 -43 -66 -57 -163 -57
-123 0 -158 27 -185 143 -7 29 -11 295 -11 721 0 372 -3 1183 -7 1802 l-6
1127 -240 0 -240 0 7 -1162 c8 -1414 24 -2620 36 -2746 16 -170 105 -307 241
-373 96 -47 177 -59 401 -59 305 1 420 32 533 146 86 87 133 208 170 434 13
83 15 336 15 2025 0 1854 -1 1934 -19 2022 -48 230 -121 303 -496 498 -248
130 -354 212 -374 289 -30 121 -22 443 14 533 22 54 51 72 128 80 77 7 138 -9
180 -46 l31 -29 10 -236 9 -236 234 0 234 0 -3 348 c-4 323 -5 351 -25 409
-57 163 -160 251 -348 294 -116 27 -466 26 -577 -1z"/>
<path d="M1040 4200 l0 -3250 275 0 275 0 0 2320 0 2320 220 0 220 0 0 -2320
0 -2320 275 0 275 0 0 3250 0 3250 -275 0 -275 0 0 -665 0 -665 -220 0 -220 0
0 665 0 665 -275 0 -275 0 0 -3250z"/>
<path d="M2830 7160 l0 -290 775 0 775 0 0 290 0 290 -775 0 -775 0 0 -290z"/>
<path d="M4630 4200 l0 -3250 270 0 270 0 0 2281 0 2282 88 -5 c48 -3 99 -11
114 -18 60 -28 94 -176 130 -565 25 -274 35 -1063 37 -2872 l1 -1103 289 0
289 0 -5 1293 c-2 710 -8 1558 -13 1882 -8 530 -11 615 -34 835 -50 465 -91
629 -183 731 -20 22 -34 41 -32 43 2 2 29 19 59 38 66 42 81 58 114 123 51
102 67 221 73 545 8 414 -13 594 -84 748 -39 83 -141 181 -218 211 -122 46
-187 51 -692 51 l-473 0 0 -3250z m860 2673 c49 -55 65 -153 64 -393 -1 -278
-23 -400 -84 -455 -19 -18 -39 -20 -161 -23 l-139 -4 0 457 0 456 146 -3 146
-3 28 -32z"/>
<path d="M6410 4770 l0 -2680 590 0 590 0 0 290 0 290 -320 0 -320 0 0 2390 0
2390 -270 0 -270 0 0 -2680z"/>
<path d="M3206 6333 c-162 -49 -307 -229 -353 -438 -17 -75 -18 -233 -21
-2512 l-2 -2433 265 0 265 0 0 1775 0 1775 245 0 245 0 0 -1775 0 -1775 265 0
265 0 0 2398 c0 2592 1 2521 -53 2657 -63 160 -198 296 -329 331 -79 21 -722
19 -792 -3z m477 -376 c41 -18 98 -81 134 -149 l28 -53 5 -373 5 -372 -247 0
-248 0 0 336 c0 357 5 409 51 492 27 49 74 97 113 116 39 19 116 20 159 3z"/>
<path d="M6410 1255 l0 -285 590 0 590 0 0 285 0 285 -590 0 -590 0 0 -285z"/>
</g>
</svg>
